<?xml version="1.0" encoding="UTF-8"?>
<svg xmlns="http://www.w3.org/2000/svg" width="262" height="57" viewBox="0 0 262 57">
  <g fill="none" fill-rule="evenodd">
    <g fill="#64665B">
      <path d="M111.75 40.656c5.674 0 8.49-4.494 8.49-9.676s-2.816-9.63-8.49-9.63h-5.783v19.306h5.781zM98.475 14.058h13.182c10.307 0 16.346 6.557 16.346 16.968 0 10.41-6.176 16.922-16.573 16.922H98.476v-33.89zM178.798 37.4c0-2.018-1.361-3.99-4.403-3.99h-6.992v7.98h6.855c3.179 0 4.54-2.11 4.54-3.99zm-11.395-16.83v6.65h6.038c2.77 0 3.905-1.789 3.905-3.394 0-1.696-1.272-3.256-3.587-3.256h-6.356zm19.16 17.472c0 5.458-4.087 9.906-10.716 9.906h-15.846v-33.89h15.075c6.537 0 9.716 4.265 9.716 8.392 0 3.027-1.862 5.87-4.631 6.924 4.358 1.055 6.401 4.679 6.401 8.668zm8.403-5.365h11.716c-.637-2.844-2.725-4.678-5.722-4.678-2.906 0-5.176 1.742-5.994 4.678m18.344 5.136h-18.298c.772 2.751 2.906 4.724 6.765 4.724 2.679 0 5.767-1.056 7.765-2.431l2.815 4.907c-2.407 1.834-6.266 3.485-10.897 3.485-9.308 0-13.621-6.329-13.621-13.161 0-7.475 5.22-13.162 13.121-13.162 7.129 0 12.577 4.631 12.577 12.611 0 1.01-.091 2.018-.227 3.027m2.178 10.134h7.128V12.919h-7.128zm10.707 0h7.128V12.919h-7.128zm28.737-12.786c0-3.577-2.678-6.603-6.447-6.603-3.768 0-6.356 3.026-6.356 6.603 0 3.67 2.633 6.696 6.356 6.696 3.769 0 6.447-3.073 6.447-6.696zM262 23v24.772h-7V45c-1.816 1.835-4.335 3.415-7.741 3.415-7.174 0-12.259-5.87-12.259-13.345 0-7.521 5.222-13.07 12.259-13.07 3.36 0 5.925 1.422 7.741 3.302V23h7zM149.932 35.161c0-3.577-2.678-6.603-6.447-6.603-3.768 0-6.356 3.026-6.356 6.603 0 3.67 2.633 6.696 6.356 6.696 3.769 0 6.447-3.073 6.447-6.696zM157 23v24.772h-7V45c-1.816 1.835-4.335 3.415-7.741 3.415-7.174 0-12.259-5.87-12.259-13.345 0-7.521 5.222-13.07 12.259-13.07 3.36 0 5.925 1.422 7.741 3.302V23h7z"></path>
    </g>
    <g fill-rule="nonzero">
      <path fill="#74BC1E" d="M57.998 39l4.634-3.701L67 39v9l-9.002 9L42 41V23z"></path>
      <path fill="#4B8C19" d="M67 39h-9l5-3.683z"></path>
      <path fill="#96D700" d="M42 23l16 16 15-11 7-23-7-5-31 15.998z"></path>
      <path fill="#74BC1E" d="M22.002 39l-4.634-3.701L13 39v9l9.002 9L38 41V23z"></path>
      <path fill="#4B8C19" d="M13 39h9l-5-3.683z"></path>
      <path fill="#96D700" d="M38 23L22 39 7 28 0 5l7-5 31 15.998z"></path>
    </g>
  </g>
</svg>
